<?xml version="1.0" encoding="UTF-8"?>
<!DOCTYPE svg PUBLIC "-//W3C//DTD SVG 1.1//EN" "http://www.w3.org/Graphics/SVG/1.1/DTD/svg11.dtd">
<svg version="1.1" xmlns="http://www.w3.org/2000/svg" xmlns:xlink="http://www.w3.org/1999/xlink" x="0" y="0" width="50" height="50" viewBox="0, 0, 50, 50">
  <g id="Layer_1">
    <path d="M19.53,37.71 L19.219,36.158 L16.796,34.668 L15.012,35.043 L15.699,38.477 C15.999,39.971 15.782,41.546 15.078,42.895 C14.323,44.364 13.355,44.985 12.682,45.69 C11.919,46.453 11.919,47.689 12.682,48.452 C13.445,49.214 14.682,49.214 15.445,48.452 C15.924,47.899 18.097,46.442 19.19,43.172 C19.776,41.413 19.893,39.525 19.53,37.71 z" fill="#ED4C74"/>
    <g>
      <path d="M37.317,1.548 C38.08,2.311 38.08,3.547 37.317,4.31 L36.009,5.675 C35.517,6.167 35.102,6.736 34.782,7.356 C34.623,7.664 34.487,7.985 34.377,8.315 C34.006,9.429 33.931,10.624 34.161,11.775 L34.848,15.207 L33.496,16.015 C32.452,15.584 31.721,14.272 30.641,14.093 L30.331,12.54 C29.968,10.725 30.085,8.836 30.672,7.079 C31.191,5.518 32.082,4.076 33.246,2.913 L34.555,1.548 C35.317,0.785 36.555,0.785 37.317,1.548 z" fill="#78D4FF"/>
      <path d="M35.963,19.415 L35.964,19.412 L33.789,18.066 L31.685,18.37 C32.976,22.186 32.023,26.404 29.116,29.311 C26.218,32.21 22.003,33.175 18.173,31.881 C16.35,31.266 18.785,31.835 13.898,30.837 C12.998,30.742 10.362,29.706 6.884,30.866 C3.868,31.871 2.503,33.754 1.548,34.555 C0.785,35.317 0.785,36.555 1.548,37.318 C2.311,38.08 3.547,38.08 4.31,37.318 C5.457,36.279 6.246,35.198 8.12,34.571 C10.658,33.728 12.375,34.659 15.012,35.043 L16.026,35.246 C21.462,37.489 27.673,36.278 31.879,32.074 C35.266,28.685 36.722,23.98 35.963,19.415 z" fill="#78D4FF"/>
    </g>
    <path d="M48.451,12.739 C47.689,11.976 46.452,11.976 45.69,12.739 C44.58,13.775 43.763,15.003 41.741,15.679 C39.207,16.524 37.487,15.592 34.847,15.208 L33.835,15.005 C32.791,14.575 31.72,14.272 30.641,14.093 C26.075,13.334 21.37,14.79 17.982,18.177 C14.594,21.565 13.139,26.27 13.898,30.837 L18.173,31.881 C16.884,28.063 17.837,23.845 20.744,20.939 C23.649,18.034 27.87,17.079 31.685,18.37 C33.392,18.943 31.257,18.467 35.964,19.412 C37.997,19.822 40.062,20.356 42.977,19.385 C46.167,18.318 47.591,16.239 48.451,15.501 C49.214,14.738 49.214,13.501 48.451,12.739 z" fill="#ED4C74"/>
    <path d="M40.77,7.819 C41.151,7.438 41.151,6.82 40.77,6.438 C40.389,6.057 39.77,6.056 39.389,6.438 C39.008,6.82 39.008,7.438 39.389,7.819 C39.77,8.2 40.389,8.2 40.77,7.819 z" fill="#000000"/>
    <path d="M25.578,25.773 C25.196,26.155 25.197,26.773 25.578,27.154 C25.96,27.536 26.578,27.536 26.959,27.154 C27.34,26.773 27.34,26.155 26.959,25.773 C26.578,25.391 25.96,25.392 25.578,25.773 z" fill="#000000"/>
    <path d="M7.763,40.77 C8.144,40.389 8.129,39.785 7.747,39.405 C7.366,39.023 6.763,39.008 6.381,39.389 C6,39.771 6,40.389 6.381,40.77 C6.763,41.152 7.381,41.152 7.763,40.77 z" fill="#000000"/>
    <path d="M4.991,38.018 L6.153,36.912 C6.159,36.906 6.164,36.9 6.17,36.895 C6.427,36.638 6.706,36.408 7.006,36.205 L13.852,43.05 C13.651,43.346 13.423,43.623 13.17,43.878 L12.699,44.325 L10.525,42.151 C10.143,41.77 9.525,41.77 9.144,42.151 C8.762,42.533 8.762,43.151 9.144,43.533 L11.418,45.807 C10.908,46.874 11.072,48.223 11.991,49.142 C13.124,50.274 14.971,50.296 16.126,49.151 L17.287,48.045 C17.293,48.04 17.298,48.034 17.304,48.029 C18.573,46.761 19.545,45.189 20.116,43.481 C21.189,40.261 20.447,37.37 20.441,37.286 C24.852,37.612 29.317,36.016 32.569,32.765 C35.782,29.551 37.421,25.1 37.091,20.636 C39.182,21.059 41.197,21.007 43.286,20.311 C44.993,19.741 46.566,18.768 47.833,17.5 L49.142,16.191 C50.287,15.046 50.287,13.193 49.142,12.048 C48.223,11.13 46.874,10.964 45.807,11.475 L43.532,9.2 C43.151,8.819 42.533,8.819 42.151,9.2 C41.77,9.582 41.77,10.2 42.151,10.582 L44.308,12.739 L43.69,13.357 C43.435,13.613 43.155,13.843 42.854,14.047 L36.009,7.201 C36.212,6.902 36.443,6.622 36.699,6.366 C36.704,6.361 36.709,6.356 36.714,6.351 L38.016,4.992 C39.15,3.849 39.147,1.997 38.008,0.857 C36.865,-0.285 35.006,-0.285 33.864,0.857 C33.859,0.862 33.854,0.867 33.849,0.872 L32.548,2.23 C31.281,3.499 30.311,5.069 29.745,6.77 C29.105,8.686 28.976,10.748 29.373,12.732 L29.42,12.964 C24.955,12.634 20.505,14.273 17.291,17.487 C14.078,20.7 12.439,25.15 12.769,29.615 L12.537,29.569 C10.554,29.172 8.492,29.3 6.575,29.94 C4.874,30.507 3.304,31.476 2.036,32.742 L0.875,33.847 C0.869,33.853 0.863,33.859 0.857,33.864 C-0.285,35.007 -0.285,36.866 0.857,38.008 C1.995,39.146 3.846,39.152 4.991,38.018 z M14.182,35.873 C14.541,38.138 15.137,39.28 14.698,41.134 L8.922,35.359 C9.731,35.168 10.573,35.151 11.388,35.314 L14.182,35.873 z M18.264,42.862 C17.79,44.28 16.983,45.586 15.932,46.639 L14.771,47.744 C14.766,47.75 14.76,47.755 14.754,47.761 C14.373,48.143 13.754,48.143 13.373,47.761 C12.993,47.382 12.991,46.77 13.366,46.387 L14.525,45.284 C14.531,45.278 14.537,45.273 14.543,45.267 C15.438,44.371 16.061,43.293 16.411,42.244 C17.299,39.576 16.433,37.667 16.277,36.389 C16.968,36.641 17.675,36.843 18.391,36.994 C18.435,37.467 19.273,39.832 18.264,42.862 z M35.677,14.378 C35.32,12.123 34.723,10.977 35.163,9.118 L40.938,14.893 C39.082,15.332 37.952,14.738 35.677,14.378 z M31.598,7.388 C32.07,5.969 32.879,4.661 33.936,3.604 C33.941,3.599 33.946,3.594 33.951,3.589 L35.251,2.232 C35.632,1.858 36.248,1.86 36.627,2.238 C37.007,2.619 37.007,3.238 36.627,3.619 C36.622,3.624 36.617,3.629 36.612,3.634 L35.31,4.992 C34.461,5.844 33.826,6.883 33.45,8.006 C32.559,10.681 33.43,12.607 33.582,13.862 C32.892,13.61 32.185,13.408 31.47,13.257 C31.425,12.783 30.586,10.417 31.598,7.388 z M18.673,18.868 C22.488,15.052 28.282,13.771 33.462,15.908 C33.628,15.976 33.38,15.904 38.089,16.851 C39.404,17.116 40.774,17.031 42.051,16.605 C43.162,16.234 44.21,15.6 45.072,14.738 L46.38,13.429 C46.762,13.048 47.379,13.048 47.761,13.429 C48.142,13.811 48.143,14.428 47.761,14.81 L46.452,16.119 C45.397,17.175 44.088,17.984 42.668,18.459 C41.071,18.991 39.355,19.098 37.709,18.768 C33.108,17.834 33.068,17.862 32.876,17.78 C31.47,17.177 29.903,16.83 28.269,16.83 C25.178,16.83 22.239,18.062 20.053,20.249 C17.352,22.95 16.169,26.731 16.8,30.422 L14.77,30.015 C14.3,25.933 15.731,21.809 18.673,18.868 z M26.036,30.375 L19.68,24.019 C19.988,23.429 20.354,22.872 20.778,22.355 L22.816,24.392 C23.197,24.774 23.816,24.774 24.197,24.392 C24.578,24.011 24.578,23.393 24.197,23.011 L22.16,20.974 C22.677,20.55 23.233,20.184 23.824,19.876 L30.179,26.232 C29.724,27.107 29.137,27.909 28.425,28.621 C27.715,29.331 26.913,29.918 26.036,30.375 z M18.954,31.1 C18.48,29.425 18.469,27.671 18.908,26.009 L24.046,31.147 C22.385,31.587 20.63,31.575 18.954,31.1 z M30.905,19.151 C31.379,20.826 31.391,22.58 30.951,24.241 L25.812,19.101 C26.61,18.89 27.432,18.783 28.269,18.783 C29.161,18.783 30.045,18.907 30.905,19.151 z M2.231,35.253 L3.391,34.149 C3.397,34.143 3.403,34.138 3.409,34.132 C4.465,33.075 5.773,32.266 7.193,31.793 C8.788,31.261 10.503,31.154 12.153,31.484 L16.794,32.412 C17.12,32.477 21.252,34.642 26.251,32.439 C27.577,31.813 28.639,31.169 29.806,30.002 C32.543,27.266 33.682,23.468 33.059,19.831 C33.212,19.861 34.34,20.083 35.09,20.233 C35.562,24.315 34.13,28.441 31.188,31.384 C27.368,35.203 21.573,36.478 16.398,34.343 C16.251,34.283 11.783,33.401 11.771,33.399 C10.457,33.136 9.088,33.221 7.811,33.645 C6.759,33.997 5.686,34.619 4.798,35.505 L3.636,36.61 C3.63,36.616 3.625,36.621 3.619,36.627 C3.237,37.009 2.62,37.009 2.238,36.627 C1.859,36.248 1.857,35.635 2.231,35.253 z" fill="#000000"/>
  </g>
</svg>
